<svg width="117" height="34" viewBox="0 0 117 34" fill="none" xmlns="http://www.w3.org/2000/svg">
<path d="M21 6.71663C22.245 6.71663 23.25 5.73831 23.25 4.52635C23.25 3.56263 22.26 2.13164 21.585 1.28474C21.285 0.905088 20.7 0.905088 20.4 1.28474C19.74 2.13164 18.75 3.56263 18.75 4.52635C18.75 5.73831 19.755 6.71663 21 6.71663ZM13.5 6.71663C14.745 6.71663 15.75 5.73831 15.75 4.52635C15.75 3.56263 14.76 2.13164 14.085 1.28474C13.785 0.905088 13.2 0.905088 12.9 1.28474C12.24 2.13164 11.25 3.56263 11.25 4.52635C11.25 5.73831 12.255 6.71663 13.5 6.71663ZM6 6.71663C7.245 6.71663 8.25 5.73831 8.25 4.52635C8.25 3.56263 7.26 2.13164 6.585 1.28474C6.285 0.905088 5.7 0.905088 5.4 1.28474C4.74 2.13164 3.75 3.56263 3.75 4.52635C3.75 5.73831 4.755 6.71663 6 6.71663ZM23.88 11.1118C23.58 10.2503 22.74 9.63701 21.75 9.63701H5.25C4.26 9.63701 3.435 10.2503 3.12 11.1118L0.165 19.3911C0.0599999 19.6977 0 20.0189 0 20.3548V30.8097C0 32.0217 1.005 33 2.25 33C3.495 33 4.5 32.0217 4.5 30.8097V30.0796H22.5V30.8097C22.5 32.0071 23.505 33 24.75 33C25.98 33 27 32.0217 27 30.8097V20.3548C27 20.0335 26.94 19.6977 26.835 19.3911L23.88 11.1118ZM5.25 25.6991C4.005 25.6991 3 24.7207 3 23.5088C3 22.2968 4.005 21.3185 5.25 21.3185C6.495 21.3185 7.5 22.2968 7.5 23.5088C7.5 24.7207 6.495 25.6991 5.25 25.6991ZM21.75 25.6991C20.505 25.6991 19.5 24.7207 19.5 23.5088C19.5 22.2968 20.505 21.3185 21.75 21.3185C22.995 21.3185 24 22.2968 24 23.5088C24 24.7207 22.995 25.6991 21.75 25.6991ZM3 18.3981L4.905 12.8202C5.115 12.2361 5.685 11.8273 6.33 11.8273H20.67C21.315 11.8273 21.885 12.2361 22.095 12.8202L24 18.3981H3Z" fill="#437FE5"/>
<path d="M42.8438 24.3711H45.2852C45.207 25.3021 44.9466 26.1322 44.5039 26.8613C44.0612 27.584 43.4395 28.1536 42.6387 28.5703C41.8379 28.987 40.8646 29.1953 39.7188 29.1953C38.8398 29.1953 38.0488 29.0391 37.3457 28.7266C36.6426 28.4076 36.0404 27.9583 35.5391 27.3789C35.0378 26.793 34.6536 26.0866 34.3867 25.2598C34.1263 24.4329 33.9961 23.5085 33.9961 22.4863V21.3047C33.9961 20.2826 34.1296 19.3581 34.3965 18.5312C34.6699 17.7044 35.0605 16.998 35.5684 16.4121C36.0762 15.8197 36.6849 15.3672 37.3945 15.0547C38.1107 14.7422 38.9147 14.5859 39.8066 14.5859C40.9395 14.5859 41.8965 14.7943 42.6777 15.2109C43.459 15.6276 44.0645 16.2038 44.4941 16.9395C44.9303 17.6751 45.1973 18.5182 45.2949 19.4688H42.8535C42.7884 18.8568 42.6452 18.3327 42.4238 17.8965C42.209 17.4603 41.89 17.1283 41.4668 16.9004C41.0436 16.666 40.4902 16.5488 39.8066 16.5488C39.2467 16.5488 38.7585 16.653 38.3418 16.8613C37.9251 17.0697 37.5768 17.3757 37.2969 17.7793C37.0169 18.1829 36.8053 18.681 36.6621 19.2734C36.5254 19.8594 36.457 20.5299 36.457 21.2852V22.4863C36.457 23.2025 36.5189 23.8535 36.6426 24.4395C36.7728 25.0189 36.9681 25.5169 37.2285 25.9336C37.4954 26.3503 37.834 26.6725 38.2441 26.9004C38.6543 27.1283 39.1458 27.2422 39.7188 27.2422C40.4154 27.2422 40.9785 27.1315 41.4082 26.9102C41.8444 26.6888 42.1732 26.3665 42.3945 25.9434C42.6224 25.5137 42.7721 24.9896 42.8438 24.3711ZM53.2344 26.8809V21.8418C53.2344 21.4642 53.166 21.1387 53.0293 20.8652C52.8926 20.5918 52.6842 20.3802 52.4043 20.2305C52.1309 20.0807 51.7858 20.0059 51.3691 20.0059C50.985 20.0059 50.653 20.071 50.373 20.2012C50.0931 20.3314 49.875 20.5072 49.7188 20.7285C49.5625 20.9499 49.4844 21.2005 49.4844 21.4805H47.1406C47.1406 21.0638 47.2415 20.6602 47.4434 20.2695C47.6452 19.8789 47.9382 19.5306 48.3223 19.2246C48.7064 18.9186 49.1654 18.6777 49.6992 18.502C50.2331 18.3262 50.832 18.2383 51.4961 18.2383C52.2904 18.2383 52.9935 18.3717 53.6055 18.6387C54.224 18.9056 54.709 19.3092 55.0605 19.8496C55.4186 20.3835 55.5977 21.054 55.5977 21.8613V26.5586C55.5977 27.0404 55.6302 27.4733 55.6953 27.8574C55.7669 28.235 55.8678 28.5638 55.998 28.8438V29H53.5859C53.4753 28.7461 53.3874 28.4238 53.3223 28.0332C53.2637 27.6361 53.2344 27.252 53.2344 26.8809ZM53.5762 22.5742L53.5957 24.0293H51.9062C51.4701 24.0293 51.0859 24.0716 50.7539 24.1562C50.4219 24.2344 50.1452 24.3516 49.9238 24.5078C49.7025 24.6641 49.5365 24.8529 49.4258 25.0742C49.3151 25.2956 49.2598 25.5462 49.2598 25.8262C49.2598 26.1061 49.3249 26.3633 49.4551 26.5977C49.5853 26.8255 49.7741 27.0046 50.0215 27.1348C50.2754 27.265 50.5814 27.3301 50.9395 27.3301C51.4212 27.3301 51.8411 27.2324 52.1992 27.0371C52.5638 26.8353 52.8503 26.5911 53.0586 26.3047C53.2669 26.0117 53.3776 25.735 53.3906 25.4746L54.1523 26.5195C54.0742 26.7865 53.9408 27.0729 53.752 27.3789C53.5632 27.6849 53.3158 27.9779 53.0098 28.2578C52.7103 28.5312 52.349 28.7559 51.9258 28.9316C51.5091 29.1074 51.0273 29.1953 50.4805 29.1953C49.7904 29.1953 49.1751 29.0586 48.6348 28.7852C48.0944 28.5052 47.6712 28.1309 47.3652 27.6621C47.0592 27.1868 46.9062 26.6497 46.9062 26.0508C46.9062 25.4909 47.0104 24.9961 47.2188 24.5664C47.4336 24.1302 47.7461 23.7656 48.1562 23.4727C48.5729 23.1797 49.0807 22.9583 49.6797 22.8086C50.2786 22.6523 50.9622 22.5742 51.7305 22.5742H53.5762ZM60.4219 20.4453V29H58.0684V18.4336H60.3145L60.4219 20.4453ZM63.6543 18.3652L63.6348 20.5527C63.4915 20.5267 63.3353 20.5072 63.166 20.4941C63.0033 20.4811 62.8405 20.4746 62.6777 20.4746C62.2741 20.4746 61.9193 20.5332 61.6133 20.6504C61.3073 20.7611 61.0501 20.9238 60.8418 21.1387C60.64 21.347 60.4837 21.6009 60.373 21.9004C60.2624 22.1999 60.1973 22.5352 60.1777 22.9062L59.6406 22.9453C59.6406 22.2812 59.7057 21.666 59.8359 21.0996C59.9661 20.5332 60.1615 20.0352 60.4219 19.6055C60.6888 19.1758 61.0208 18.8405 61.418 18.5996C61.8216 18.3587 62.2871 18.2383 62.8145 18.2383C62.9577 18.2383 63.1107 18.2513 63.2734 18.2773C63.4427 18.3034 63.5697 18.3327 63.6543 18.3652ZM68.9277 25.8066L71.7598 14.7812H73.2441L73.0781 17.623L70.0508 29H68.5078L68.9277 25.8066ZM66.8086 14.7812L69.1035 25.7188L69.3086 29H67.668L64.377 14.7812H66.8086ZM76.457 25.6895L78.7227 14.7812H81.1641L77.873 29H76.2324L76.457 25.6895ZM73.8203 14.7812L76.623 25.8359L77.0332 29H75.4902L72.5117 17.623L72.3555 14.7812H73.8203ZM88.3711 26.8809V21.8418C88.3711 21.4642 88.3027 21.1387 88.166 20.8652C88.0293 20.5918 87.821 20.3802 87.541 20.2305C87.2676 20.0807 86.9225 20.0059 86.5059 20.0059C86.1217 20.0059 85.7897 20.071 85.5098 20.2012C85.2298 20.3314 85.0117 20.5072 84.8555 20.7285C84.6992 20.9499 84.6211 21.2005 84.6211 21.4805H82.2773C82.2773 21.0638 82.3783 20.6602 82.5801 20.2695C82.7819 19.8789 83.0749 19.5306 83.459 19.2246C83.8431 18.9186 84.3021 18.6777 84.8359 18.502C85.3698 18.3262 85.9688 18.2383 86.6328 18.2383C87.4271 18.2383 88.1302 18.3717 88.7422 18.6387C89.3607 18.9056 89.8457 19.3092 90.1973 19.8496C90.5553 20.3835 90.7344 21.054 90.7344 21.8613V26.5586C90.7344 27.0404 90.7669 27.4733 90.832 27.8574C90.9036 28.235 91.0046 28.5638 91.1348 28.8438V29H88.7227C88.612 28.7461 88.5241 28.4238 88.459 28.0332C88.4004 27.6361 88.3711 27.252 88.3711 26.8809ZM88.7129 22.5742L88.7324 24.0293H87.043C86.6068 24.0293 86.2227 24.0716 85.8906 24.1562C85.5586 24.2344 85.2819 24.3516 85.0605 24.5078C84.8392 24.6641 84.6732 24.8529 84.5625 25.0742C84.4518 25.2956 84.3965 25.5462 84.3965 25.8262C84.3965 26.1061 84.4616 26.3633 84.5918 26.5977C84.722 26.8255 84.9108 27.0046 85.1582 27.1348C85.4121 27.265 85.7181 27.3301 86.0762 27.3301C86.5579 27.3301 86.9779 27.2324 87.3359 27.0371C87.7005 26.8353 87.987 26.5911 88.1953 26.3047C88.4036 26.0117 88.5143 25.735 88.5273 25.4746L89.2891 26.5195C89.2109 26.7865 89.0775 27.0729 88.8887 27.3789C88.6999 27.6849 88.4525 27.9779 88.1465 28.2578C87.847 28.5312 87.4857 28.7559 87.0625 28.9316C86.6458 29.1074 86.1641 29.1953 85.6172 29.1953C84.9271 29.1953 84.3118 29.0586 83.7715 28.7852C83.2311 28.5052 82.8079 28.1309 82.502 27.6621C82.196 27.1868 82.043 26.6497 82.043 26.0508C82.043 25.4909 82.1471 24.9961 82.3555 24.5664C82.5703 24.1302 82.8828 23.7656 83.293 23.4727C83.7096 23.1797 84.2174 22.9583 84.8164 22.8086C85.4154 22.6523 86.099 22.5742 86.8672 22.5742H88.7129ZM99.123 26.1387C99.123 25.9043 99.0645 25.6927 98.9473 25.5039C98.8301 25.3086 98.6055 25.1328 98.2734 24.9766C97.9479 24.8203 97.4661 24.6771 96.8281 24.5469C96.2682 24.4232 95.7539 24.2767 95.2852 24.1074C94.8229 23.9316 94.4258 23.7201 94.0938 23.4727C93.7617 23.2253 93.5046 22.9323 93.3223 22.5938C93.14 22.2552 93.0488 21.8646 93.0488 21.4219C93.0488 20.9922 93.1432 20.5853 93.332 20.2012C93.5208 19.8171 93.791 19.4785 94.1426 19.1855C94.4941 18.8926 94.9206 18.6615 95.4219 18.4922C95.9297 18.3229 96.4961 18.2383 97.1211 18.2383C98.0065 18.2383 98.765 18.388 99.3965 18.6875C100.035 18.9805 100.523 19.3809 100.861 19.8887C101.2 20.39 101.369 20.9564 101.369 21.5879H99.0156C99.0156 21.3079 98.944 21.0475 98.8008 20.8066C98.6641 20.5592 98.4557 20.3607 98.1758 20.2109C97.8958 20.0547 97.5443 19.9766 97.1211 19.9766C96.7174 19.9766 96.3822 20.0417 96.1152 20.1719C95.8548 20.2956 95.6595 20.4583 95.5293 20.6602C95.4056 20.862 95.3438 21.0833 95.3438 21.3242C95.3438 21.5 95.3763 21.6595 95.4414 21.8027C95.513 21.9395 95.6302 22.0664 95.793 22.1836C95.9557 22.2943 96.1771 22.3984 96.457 22.4961C96.7435 22.5938 97.1016 22.6882 97.5312 22.7793C98.3385 22.9486 99.0319 23.1667 99.6113 23.4336C100.197 23.694 100.646 24.0326 100.959 24.4492C101.271 24.8594 101.428 25.3802 101.428 26.0117C101.428 26.4805 101.327 26.9102 101.125 27.3008C100.93 27.6849 100.643 28.0202 100.266 28.3066C99.888 28.5866 99.4355 28.8047 98.9082 28.9609C98.3874 29.1172 97.8014 29.1953 97.1504 29.1953C96.1934 29.1953 95.3828 29.026 94.7188 28.6875C94.0547 28.3424 93.5501 27.903 93.2051 27.3691C92.8665 26.8288 92.6973 26.2689 92.6973 25.6895H94.9727C94.9987 26.1257 95.1191 26.474 95.334 26.7344C95.5553 26.9883 95.8288 27.1738 96.1543 27.291C96.4863 27.4017 96.8281 27.457 97.1797 27.457C97.6029 27.457 97.9577 27.4017 98.2441 27.291C98.5306 27.1738 98.7487 27.0176 98.8984 26.8223C99.0482 26.6204 99.123 26.3926 99.123 26.1387ZM105.812 14V29H103.469V14H105.812ZM105.402 23.3262L104.641 23.3164C104.647 22.5872 104.748 21.9134 104.943 21.2949C105.145 20.6764 105.425 20.1393 105.783 19.6836C106.148 19.2214 106.584 18.8665 107.092 18.6191C107.6 18.3652 108.163 18.2383 108.781 18.2383C109.302 18.2383 109.771 18.3099 110.188 18.4531C110.611 18.5964 110.975 18.8275 111.281 19.1465C111.587 19.459 111.818 19.8691 111.975 20.377C112.137 20.8783 112.219 21.4902 112.219 22.2129V29H109.855V22.1934C109.855 21.6855 109.781 21.2819 109.631 20.9824C109.488 20.6829 109.276 20.4681 108.996 20.3379C108.716 20.2012 108.374 20.1328 107.971 20.1328C107.548 20.1328 107.173 20.2174 106.848 20.3867C106.529 20.556 106.262 20.7871 106.047 21.0801C105.832 21.373 105.669 21.7116 105.559 22.0957C105.454 22.4798 105.402 22.89 105.402 23.3262Z" fill="#437FE5"/>
</svg>
