<svg width="36" height="38" viewBox="0 0 36 38" fill="none" xmlns="http://www.w3.org/2000/svg">
<path d="M28 6.7885C29.66 6.7885 31 5.62674 31 4.18754C31 3.04312 29.68 1.34383 28.78 0.338125C28.38 -0.112708 27.6 -0.112708 27.2 0.338125C26.32 1.34383 25 3.04312 25 4.18754C25 5.62674 26.34 6.7885 28 6.7885ZM18 6.7885C19.66 6.7885 21 5.62674 21 4.18754C21 3.04312 19.68 1.34383 18.78 0.338125C18.38 -0.112708 17.6 -0.112708 17.2 0.338125C16.32 1.34383 15 3.04312 15 4.18754C15 5.62674 16.34 6.7885 18 6.7885ZM8 6.7885C9.66 6.7885 11 5.62674 11 4.18754C11 3.04312 9.68 1.34383 8.78 0.338125C8.38 -0.112708 7.6 -0.112708 7.2 0.338125C6.32 1.34383 5 3.04312 5 4.18754C5 5.62674 6.34 6.7885 8 6.7885ZM31.84 12.0078C31.44 10.9847 30.32 10.2564 29 10.2564H7C5.68 10.2564 4.58 10.9847 4.16 12.0078L0.22 21.8394C0.0799998 22.2035 0 22.585 0 22.9838V35.399C0 36.8382 1.34 38 3 38C4.66 38 6 36.8382 6 35.399V34.5321H30V35.399C30 36.8209 31.34 38 33 38C34.64 38 36 36.8382 36 35.399V22.9838C36 22.6023 35.92 22.2035 35.78 21.8394L31.84 12.0078ZM7 29.3301C5.34 29.3301 4 28.1684 4 26.7292C4 25.29 5.34 24.1282 7 24.1282C8.66 24.1282 10 25.29 10 26.7292C10 28.1684 8.66 29.3301 7 29.3301ZM29 29.3301C27.34 29.3301 26 28.1684 26 26.7292C26 25.29 27.34 24.1282 29 24.1282C30.66 24.1282 32 25.29 32 26.7292C32 28.1684 30.66 29.3301 29 29.3301ZM4 20.6603L6.54 14.0365C6.82 13.3429 7.58 12.8574 8.44 12.8574H27.56C28.42 12.8574 29.18 13.3429 29.46 14.0365L32 20.6603H4Z" fill="#437FE5"/>
</svg>
